#define door_open_image_width 20
#define door_open_image_height 20
static unsigned char door_open_image_bits[] = {
   0x00, 0x00, 0x00, 0xfe, 0x1f, 0x00, 0x06, 0x18, 0x00, 0x02, 0x10, 0x00,
   0x02, 0x10, 0x00, 0x02, 0x10, 0x00, 0x02, 0xc0, 0x00, 0x02, 0xc0, 0x01,
   0x02, 0x80, 0x03, 0x82, 0xff, 0x07, 0x82, 0xff, 0x07, 0x02, 0x80, 0x03,
   0x02, 0xc0, 0x01, 0x02, 0xc0, 0x00, 0x02, 0x10, 0x00, 0x02, 0x10, 0x00,
   0x02, 0x10, 0x00, 0xfe, 0x1f, 0x00, 0xfe, 0x1f, 0x00, 0x00, 0x00, 0x00 };
