#define door_closed_image_width 20
#define door_closed_image_height 20
static unsigned char door_closed_image_bits[] = {
   0x00, 0x00, 0x00, 0x80, 0xff, 0x07, 0x80, 0x01, 0x06, 0x80, 0x00, 0x06,
   0x80, 0x00, 0x06, 0x80, 0x00, 0x06, 0x30, 0x00, 0x06, 0x38, 0x00, 0x06,
   0x1c, 0x00, 0x06, 0xfe, 0x1f, 0x06, 0xfe, 0x1f, 0x06, 0x1c, 0x00, 0x06,
   0x38, 0x00, 0x06, 0x30, 0x00, 0x06, 0x80, 0x00, 0x06, 0x80, 0x00, 0x06,
   0x80, 0x00, 0x06, 0x80, 0xff, 0x07, 0x80, 0xff, 0x07, 0x00, 0x00, 0x00 };
