#define fan_image_width 20
#define fan_image_height 20
static unsigned char fan_image_bits[] = {
   0x00, 0x00, 0x00, 0x00, 0x0f, 0x00, 0xe0, 0x1f, 0x00, 0x70, 0x80, 0x01,
   0x38, 0x80, 0x01, 0x1c, 0x80, 0x01, 0x0c, 0x00, 0x03, 0x04, 0x00, 0x02,
   0x06, 0x00, 0x06, 0x06, 0x00, 0x06, 0x06, 0x00, 0x06, 0x06, 0x00, 0x06,
   0x04, 0x00, 0x02, 0x1c, 0x00, 0x03, 0x1c, 0x80, 0x01, 0x1c, 0xc0, 0x01,
   0x00, 0xe0, 0x00, 0xc0, 0x3f, 0x00, 0x00, 0x0f, 0x00, 0x00, 0x00, 0x00 };
