#define heater_image_width 20
#define heater_image_height 20
static unsigned char heater_image_bits[] = {
   0x00, 0x00, 0x00, 0x00, 0x00, 0x00, 0x00, 0x00, 0x00, 0x00, 0x00, 0x00,
   0x00, 0x06, 0x00, 0x20, 0x4f, 0x00, 0xf0, 0xff, 0x00, 0xf0, 0xff, 0x00,
   0xf8, 0xff, 0x01, 0xf8, 0xff, 0x01, 0xf8, 0xf9, 0x01, 0xf8, 0xf0, 0x01,
   0x78, 0xe0, 0x01, 0x70, 0xe0, 0x00, 0x70, 0x70, 0x00, 0xc0, 0x3f, 0x00,
   0x80, 0x1f, 0x00, 0x00, 0x00, 0x00, 0x00, 0x00, 0x00, 0x00, 0x00, 0x00 };
