#define moon_image_width 20
#define moon_image_height 20
static unsigned char moon_image_bits[] = {
   0x40, 0x00, 0x00, 0x10, 0x00, 0x00, 0x30, 0x00, 0x00, 0x00, 0x00, 0x00,
   0x0e, 0x00, 0x00, 0x30, 0x00, 0x00, 0x02, 0x00, 0x00, 0x7d, 0x00, 0x00,
   0x01, 0x00, 0x00, 0x52, 0x00, 0x00, 0x56, 0x00, 0x00, 0xa0, 0x00, 0x00,
   0xaf, 0x00, 0x00, 0x40, 0x07, 0x0c, 0x4a, 0x0c, 0x00, 0x94, 0xf3, 0x01,
   0x10, 0x06, 0x03, 0x20, 0xf8, 0x00, 0xe0, 0x00, 0x00, 0x00, 0x1b, 0x00 };
