#define sun_width 20
#define sun_height 20
static unsigned char sun_bits[] = {
   0x00, 0x06, 0x00, 0x00, 0x06, 0x00, 0x08, 0x06, 0x01, 0x1c, 0x80, 0x01,
   0x18, 0x80, 0x01, 0x80, 0x1f, 0x00, 0xc0, 0x30, 0x00, 0x60, 0x60, 0x00,
   0x20, 0x40, 0x00, 0x27, 0x40, 0x0e, 0x27, 0x40, 0x0e, 0x20, 0x40, 0x00,
   0x60, 0x60, 0x00, 0xc0, 0x30, 0x00, 0x80, 0x1f, 0x00, 0x18, 0x80, 0x01,
   0x1c, 0x80, 0x03, 0x00, 0x06, 0x01, 0x00, 0x06, 0x00, 0x00, 0x06, 0x00 };
